<?xml version="1.0"?>
<!-- Generated by SVGo and Plotinum VG -->
<svg width="576pt" height="360pt" viewBox="0 0 576 360"
	xmlns="http://www.w3.org/2000/svg"
	xmlns:xlink="http://www.w3.org/1999/xlink">
<g transform="scale(1, -1) translate(0, -360)">
<path d="M0,0L576,0L576,360L0,360Z" style="fill:#FFFFFF" />
<text x="36.516" y="-348.65" transform="scale(1, -1)"
	style="font-family:Liberation Sans;font-variant:normal;font-weight:normal;font-style:normal;font-size:14px">Зависимость времени выполнения запроса от количества записей в таблице</text>
<text x="160.89" y="-4.293" transform="scale(1, -1)"
	style="font-family:Liberation Sans;font-variant:normal;font-weight:normal;font-style:normal;font-size:14px">Количество записей в таблицу artworks_event</text>
<text x="75.667" y="-19.934" transform="scale(1, -1)"
	style="font-family:Liberation Sans;font-variant:normal;font-weight:normal;font-style:normal;font-size:14px">5000</text>
<text x="290.3" y="-19.934" transform="scale(1, -1)"
	style="font-family:Liberation Sans;font-variant:normal;font-weight:normal;font-style:normal;font-size:14px">25000</text>
<text x="508.83" y="-19.934" transform="scale(1, -1)"
	style="font-family:Liberation Sans;font-variant:normal;font-weight:normal;font-style:normal;font-size:14px">45000</text>
<path d="M91.239,31.281L91.239,39.281" style="fill:none;stroke:#000000;stroke-width:0.5" />
<path d="M309.77,31.281L309.77,39.281" style="fill:none;stroke:#000000;stroke-width:0.5" />
<path d="M528.29,31.281L528.29,39.281" style="fill:none;stroke:#000000;stroke-width:0.5" />
<path d="M200.5,35.281L200.5,39.281" style="fill:none;stroke:#000000;stroke-width:0.5" />
<path d="M419.03,35.281L419.03,39.281" style="fill:none;stroke:#000000;stroke-width:0.5" />
<path d="M47.533,39.281L572,39.281" style="fill:none;stroke:#000000;stroke-width:0.5" />
<g transform="rotate(90)">
<text x="156.19" y="11.348" transform="scale(1, -1)"
	style="font-family:Liberation Sans;font-variant:normal;font-weight:normal;font-style:normal;font-size:14px">Время, мс</text>
</g>
<text x="18.607" y="-95.171" transform="scale(1, -1)"
	style="font-family:Liberation Sans;font-variant:normal;font-weight:normal;font-style:normal;font-size:14px">1</text>
<text x="18.607" y="-206.76" transform="scale(1, -1)"
	style="font-family:Liberation Sans;font-variant:normal;font-weight:normal;font-style:normal;font-size:14px">3</text>
<text x="18.607" y="-318.36" transform="scale(1, -1)"
	style="font-family:Liberation Sans;font-variant:normal;font-weight:normal;font-style:normal;font-size:14px">5</text>
<path d="M30.283,98.698L38.283,98.698" style="fill:none;stroke:#000000;stroke-width:0.5" />
<path d="M30.283,210.29L38.283,210.29" style="fill:none;stroke:#000000;stroke-width:0.5" />
<path d="M30.283,321.88L38.283,321.88" style="fill:none;stroke:#000000;stroke-width:0.5" />
<path d="M34.283,154.49L38.283,154.49" style="fill:none;stroke:#000000;stroke-width:0.5" />
<path d="M34.283,266.09L38.283,266.09" style="fill:none;stroke:#000000;stroke-width:0.5" />
<path d="M38.283,48.531L38.283,330.36" style="fill:none;stroke:#000000;stroke-width:0.5" />
<path d="M91.239,48.531L91.239,330.36" style="fill:none;stroke:#808080;stroke-width:0.25" />
<path d="M309.77,48.531L309.77,330.36" style="fill:none;stroke:#808080;stroke-width:0.25" />
<path d="M528.29,48.531L528.29,330.36" style="fill:none;stroke:#808080;stroke-width:0.25" />
<path d="M47.533,98.698L572,98.698" style="fill:none;stroke:#808080;stroke-width:0.25" />
<path d="M47.533,210.29L572,210.29" style="fill:none;stroke:#808080;stroke-width:0.25" />
<path d="M47.533,321.88L572,321.88" style="fill:none;stroke:#808080;stroke-width:0.25" />
<path d="M47.533,52.01L69.386,62.277L91.239,72.677L113.09,160.91L134.94,169.37L156.8,184.49L178.65,186.98L200.5,196.96L222.36,214.96L244.21,210.03L266.06,218.89L287.91,244.74L309.77,235.1L331.62,258.53L353.47,265.45L375.32,271.75L397.18,285.59L419.03,274.06L440.88,283.66L462.74,289.18L484.59,293.12L506.44,306.17L528.29,312.57L550.15,316.52L572,330.36" style="fill:none;stroke:#F44336" />
<path d="M51.533,52.01A4,4 0 1 1 43.533,52.01A4,4 0 1 1 51.533,52.01Z" style="fill:#F44336" />
<path d="M73.386,62.277A4,4 0 1 1 65.386,62.277A4,4 0 1 1 73.386,62.277Z" style="fill:#F44336" />
<path d="M95.239,72.677A4,4 0 1 1 87.239,72.677A4,4 0 1 1 95.239,72.677Z" style="fill:#F44336" />
<path d="M117.09,160.91A4,4 0 1 1 109.09,160.91A4,4 0 1 1 117.09,160.91Z" style="fill:#F44336" />
<path d="M138.94,169.37A4,4 0 1 1 130.94,169.37A4,4 0 1 1 138.94,169.37Z" style="fill:#F44336" />
<path d="M160.8,184.49A4,4 0 1 1 152.8,184.49A4,4 0 1 1 160.8,184.49Z" style="fill:#F44336" />
<path d="M182.65,186.98A4,4 0 1 1 174.65,186.98A4,4 0 1 1 182.65,186.98Z" style="fill:#F44336" />
<path d="M204.5,196.96A4,4 0 1 1 196.5,196.96A4,4 0 1 1 204.5,196.96Z" style="fill:#F44336" />
<path d="M226.36,214.96A4,4 0 1 1 218.36,214.96A4,4 0 1 1 226.36,214.96Z" style="fill:#F44336" />
<path d="M248.21,210.03A4,4 0 1 1 240.21,210.03A4,4 0 1 1 248.21,210.03Z" style="fill:#F44336" />
<path d="M270.06,218.89A4,4 0 1 1 262.06,218.89A4,4 0 1 1 270.06,218.89Z" style="fill:#F44336" />
<path d="M291.91,244.74A4,4 0 1 1 283.91,244.74A4,4 0 1 1 291.91,244.74Z" style="fill:#F44336" />
<path d="M313.77,235.1A4,4 0 1 1 305.77,235.1A4,4 0 1 1 313.77,235.1Z" style="fill:#F44336" />
<path d="M335.62,258.53A4,4 0 1 1 327.62,258.53A4,4 0 1 1 335.62,258.53Z" style="fill:#F44336" />
<path d="M357.47,265.45A4,4 0 1 1 349.47,265.45A4,4 0 1 1 357.47,265.45Z" style="fill:#F44336" />
<path d="M379.32,271.75A4,4 0 1 1 371.32,271.75A4,4 0 1 1 379.32,271.75Z" style="fill:#F44336" />
<path d="M401.18,285.59A4,4 0 1 1 393.18,285.59A4,4 0 1 1 401.18,285.59Z" style="fill:#F44336" />
<path d="M423.03,274.06A4,4 0 1 1 415.03,274.06A4,4 0 1 1 423.03,274.06Z" style="fill:#F44336" />
<path d="M444.88,283.66A4,4 0 1 1 436.88,283.66A4,4 0 1 1 444.88,283.66Z" style="fill:#F44336" />
<path d="M466.74,289.18A4,4 0 1 1 458.74,289.18A4,4 0 1 1 466.74,289.18Z" style="fill:#F44336" />
<path d="M488.59,293.12A4,4 0 1 1 480.59,293.12A4,4 0 1 1 488.59,293.12Z" style="fill:#F44336" />
<path d="M510.44,306.17A4,4 0 1 1 502.44,306.17A4,4 0 1 1 510.44,306.17Z" style="fill:#F44336" />
<path d="M532.29,312.57A4,4 0 1 1 524.29,312.57A4,4 0 1 1 532.29,312.57Z" style="fill:#F44336" />
<path d="M554.15,316.52A4,4 0 1 1 546.15,316.52A4,4 0 1 1 554.15,316.52Z" style="fill:#F44336" />
<path d="M576,330.36A4,4 0 1 1 568,330.36A4,4 0 1 1 576,330.36Z" style="fill:#F44336" />
<path d="M47.533,48.531L69.386,51.949L91.239,54.778L113.09,134.54L134.94,135.77L156.8,137.17L178.65,137.05L200.5,140.14L222.36,141.33L244.21,139.65L266.06,140.53L287.91,147.4L309.77,147.04L331.62,159.03L353.47,153.04L375.32,156.18L397.18,155.92L419.03,152.91L440.88,148.23L462.74,146.88L484.59,148.04L506.44,160.8L528.29,153.12L550.15,153.21L572,153.37" style="fill:none;stroke:#4CAF50" />
<path d="M47.533,53.531L43.203,46.031L51.863,46.031Z" style="fill:#4CAF50" />
<path d="M69.386,56.949L65.056,49.449L73.716,49.449Z" style="fill:#4CAF50" />
<path d="M91.239,59.778L86.909,52.278L95.569,52.278Z" style="fill:#4CAF50" />
<path d="M113.09,139.54L108.76,132.04L117.42,132.04Z" style="fill:#4CAF50" />
<path d="M134.94,140.77L130.61,133.27L139.27,133.27Z" style="fill:#4CAF50" />
<path d="M156.8,142.17L152.47,134.67L161.13,134.67Z" style="fill:#4CAF50" />
<path d="M178.65,142.05L174.32,134.55L182.98,134.55Z" style="fill:#4CAF50" />
<path d="M200.5,145.14L196.17,137.64L204.83,137.64Z" style="fill:#4CAF50" />
<path d="M222.36,146.33L218.03,138.83L226.69,138.83Z" style="fill:#4CAF50" />
<path d="M244.21,144.65L239.88,137.15L248.54,137.15Z" style="fill:#4CAF50" />
<path d="M266.06,145.53L261.73,138.03L270.39,138.03Z" style="fill:#4CAF50" />
<path d="M287.91,152.4L283.58,144.9L292.24,144.9Z" style="fill:#4CAF50" />
<path d="M309.77,152.04L305.44,144.54L314.1,144.54Z" style="fill:#4CAF50" />
<path d="M331.62,164.03L327.29,156.53L335.95,156.53Z" style="fill:#4CAF50" />
<path d="M353.47,158.04L349.14,150.54L357.8,150.54Z" style="fill:#4CAF50" />
<path d="M375.32,161.18L370.99,153.68L379.66,153.68Z" style="fill:#4CAF50" />
<path d="M397.18,160.92L392.85,153.42L401.51,153.42Z" style="fill:#4CAF50" />
<path d="M419.03,157.91L414.7,150.41L423.36,150.41Z" style="fill:#4CAF50" />
<path d="M440.88,153.23L436.55,145.73L445.21,145.73Z" style="fill:#4CAF50" />
<path d="M462.74,151.88L458.41,144.38L467.07,144.38Z" style="fill:#4CAF50" />
<path d="M484.59,153.04L480.26,145.54L488.92,145.54Z" style="fill:#4CAF50" />
<path d="M506.44,165.8L502.11,158.3L510.77,158.3Z" style="fill:#4CAF50" />
<path d="M528.29,158.12L523.96,150.62L532.62,150.62Z" style="fill:#4CAF50" />
<path d="M550.15,158.21L545.82,150.71L554.48,150.71Z" style="fill:#4CAF50" />
<path d="M572,158.37L567.67,150.87L576.33,150.87Z" style="fill:#4CAF50" />
<path d="M43.533,326.67L63.533,326.67" style="fill:none;stroke:#F44336" />
<path d="M57.533,326.67A4,4 0 1 1 49.533,326.67A4,4 0 1 1 57.533,326.67Z" style="fill:#F44336" />
<text x="66.533" y="-324.18" transform="scale(1, -1)"
	style="font-family:Liberation Serif;font-variant:normal;font-weight:normal;font-style:normal;font-size:12px">Без индекса</text>
<path d="M43.533,316.49L63.533,316.49" style="fill:none;stroke:#4CAF50" />
<path d="M53.533,321.49L49.203,313.99L57.863,313.99Z" style="fill:#4CAF50" />
<text x="66.533" y="-314" transform="scale(1, -1)"
	style="font-family:Liberation Serif;font-variant:normal;font-weight:normal;font-style:normal;font-size:12px">С индексом</text>
</g>
</svg>
