<?xml version="1.0"?>
<!-- Generated by SVGo and Plotinum VG -->
<svg width="576pt" height="360pt" viewBox="0 0 576 360"
	xmlns="http://www.w3.org/2000/svg"
	xmlns:xlink="http://www.w3.org/1999/xlink">
<g transform="scale(1, -1) translate(0, -360)">
<path d="M0,0L576,0L576,360L0,360Z" style="fill:#FFFFFF" />
<text x="36.516" y="-348.65" transform="scale(1, -1)"
	style="font-family:Liberation Sans;font-variant:normal;font-weight:normal;font-style:normal;font-size:14px">Зависимость времени выполнения запроса от количества записей в таблице</text>
<text x="153.15" y="-4.293" transform="scale(1, -1)"
	style="font-family:Liberation Sans;font-variant:normal;font-weight:normal;font-style:normal;font-size:14px">Количество записей в таблицу artworks_event</text>
<text x="121.56" y="-19.934" transform="scale(1, -1)"
	style="font-family:Liberation Sans;font-variant:normal;font-weight:normal;font-style:normal;font-size:14px">10000</text>
<text x="329.31" y="-19.934" transform="scale(1, -1)"
	style="font-family:Liberation Sans;font-variant:normal;font-weight:normal;font-style:normal;font-size:14px">30000</text>
<text x="537.07" y="-19.934" transform="scale(1, -1)"
	style="font-family:Liberation Sans;font-variant:normal;font-weight:normal;font-style:normal;font-size:14px">50000</text>
<path d="M141.02,31.281L141.02,39.281" style="fill:none;stroke:#000000;stroke-width:0.5" />
<path d="M348.78,31.281L348.78,39.281" style="fill:none;stroke:#000000;stroke-width:0.5" />
<path d="M556.53,31.281L556.53,39.281" style="fill:none;stroke:#000000;stroke-width:0.5" />
<path d="M244.9,35.281L244.9,39.281" style="fill:none;stroke:#000000;stroke-width:0.5" />
<path d="M452.66,35.281L452.66,39.281" style="fill:none;stroke:#000000;stroke-width:0.5" />
<path d="M47.533,39.281L556.53,39.281" style="fill:none;stroke:#000000;stroke-width:0.5" />
<g transform="rotate(90)">
<text x="156.19" y="11.348" transform="scale(1, -1)"
	style="font-family:Liberation Sans;font-variant:normal;font-weight:normal;font-style:normal;font-size:14px">Время, мс</text>
</g>
<text x="18.607" y="-94.654" transform="scale(1, -1)"
	style="font-family:Liberation Sans;font-variant:normal;font-weight:normal;font-style:normal;font-size:14px">1</text>
<text x="18.607" y="-205.93" transform="scale(1, -1)"
	style="font-family:Liberation Sans;font-variant:normal;font-weight:normal;font-style:normal;font-size:14px">3</text>
<text x="18.607" y="-317.21" transform="scale(1, -1)"
	style="font-family:Liberation Sans;font-variant:normal;font-weight:normal;font-style:normal;font-size:14px">5</text>
<path d="M30.283,98.182L38.283,98.182" style="fill:none;stroke:#000000;stroke-width:0.5" />
<path d="M30.283,209.46L38.283,209.46" style="fill:none;stroke:#000000;stroke-width:0.5" />
<path d="M30.283,320.74L38.283,320.74" style="fill:none;stroke:#000000;stroke-width:0.5" />
<path d="M34.283,153.82L38.283,153.82" style="fill:none;stroke:#000000;stroke-width:0.5" />
<path d="M34.283,265.1L38.283,265.1" style="fill:none;stroke:#000000;stroke-width:0.5" />
<path d="M38.283,48.531L38.283,330.36" style="fill:none;stroke:#000000;stroke-width:0.5" />
<path d="M141.02,48.531L141.02,330.36" style="fill:none;stroke:#808080;stroke-width:0.25" />
<path d="M348.78,48.531L348.78,330.36" style="fill:none;stroke:#808080;stroke-width:0.25" />
<path d="M556.53,48.531L556.53,330.36" style="fill:none;stroke:#808080;stroke-width:0.25" />
<path d="M47.533,98.182L556.53,98.182" style="fill:none;stroke:#808080;stroke-width:0.25" />
<path d="M47.533,209.46L556.53,209.46" style="fill:none;stroke:#808080;stroke-width:0.25" />
<path d="M47.533,320.74L556.53,320.74" style="fill:none;stroke:#808080;stroke-width:0.25" />
<path d="M47.533,51.704L57.921,57.715L68.309,61.975L78.697,67.371L89.084,71.159L99.472,76.129L109.86,157.85L120.25,162.99L130.64,166.03L141.02,165.66L151.41,178.39L161.8,177.82L172.19,183.57L182.57,183.82L192.96,192.34L203.35,193.89L213.74,206.08L224.13,202.93L234.51,207.11L244.9,220.55L255.29,219.35L265.68,221.12L276.06,233.4L286.45,231.71L296.84,234.43L307.23,238.34L317.62,248.74L328,242.22L338.39,247.9L348.78,240.32L359.17,256.75L369.55,252.01L379.94,266.34L390.33,251.6L400.72,265.37L411.11,261.25L421.49,274.56L431.88,265.46L442.27,278.57L452.66,274.08L463.04,284.32L473.43,285.54L483.82,296.75L494.21,289.51L504.6,307.43L514.98,299.98L525.37,308.55L535.76,299.65L546.15,318.51L556.53,330.36" style="fill:none;stroke:#F44336" />
<path d="M51.533,51.704A4,4 0 1 1 43.533,51.704A4,4 0 1 1 51.533,51.704Z" style="fill:#F44336" />
<path d="M61.921,57.715A4,4 0 1 1 53.921,57.715A4,4 0 1 1 61.921,57.715Z" style="fill:#F44336" />
<path d="M72.309,61.975A4,4 0 1 1 64.309,61.975A4,4 0 1 1 72.309,61.975Z" style="fill:#F44336" />
<path d="M82.697,67.371A4,4 0 1 1 74.697,67.371A4,4 0 1 1 82.697,67.371Z" style="fill:#F44336" />
<path d="M93.084,71.159A4,4 0 1 1 85.084,71.159A4,4 0 1 1 93.084,71.159Z" style="fill:#F44336" />
<path d="M103.47,76.129A4,4 0 1 1 95.472,76.129A4,4 0 1 1 103.47,76.129Z" style="fill:#F44336" />
<path d="M113.86,157.85A4,4 0 1 1 105.86,157.85A4,4 0 1 1 113.86,157.85Z" style="fill:#F44336" />
<path d="M124.25,162.99A4,4 0 1 1 116.25,162.99A4,4 0 1 1 124.25,162.99Z" style="fill:#F44336" />
<path d="M134.64,166.03A4,4 0 1 1 126.64,166.03A4,4 0 1 1 134.64,166.03Z" style="fill:#F44336" />
<path d="M145.02,165.66A4,4 0 1 1 137.02,165.66A4,4 0 1 1 145.02,165.66Z" style="fill:#F44336" />
<path d="M155.41,178.39A4,4 0 1 1 147.41,178.39A4,4 0 1 1 155.41,178.39Z" style="fill:#F44336" />
<path d="M165.8,177.82A4,4 0 1 1 157.8,177.82A4,4 0 1 1 165.8,177.82Z" style="fill:#F44336" />
<path d="M176.19,183.57A4,4 0 1 1 168.19,183.57A4,4 0 1 1 176.19,183.57Z" style="fill:#F44336" />
<path d="M186.57,183.82A4,4 0 1 1 178.57,183.82A4,4 0 1 1 186.57,183.82Z" style="fill:#F44336" />
<path d="M196.96,192.34A4,4 0 1 1 188.96,192.34A4,4 0 1 1 196.96,192.34Z" style="fill:#F44336" />
<path d="M207.35,193.89A4,4 0 1 1 199.35,193.89A4,4 0 1 1 207.35,193.89Z" style="fill:#F44336" />
<path d="M217.74,206.08A4,4 0 1 1 209.74,206.08A4,4 0 1 1 217.74,206.08Z" style="fill:#F44336" />
<path d="M228.13,202.93A4,4 0 1 1 220.13,202.93A4,4 0 1 1 228.13,202.93Z" style="fill:#F44336" />
<path d="M238.51,207.11A4,4 0 1 1 230.51,207.11A4,4 0 1 1 238.51,207.11Z" style="fill:#F44336" />
<path d="M248.9,220.55A4,4 0 1 1 240.9,220.55A4,4 0 1 1 248.9,220.55Z" style="fill:#F44336" />
<path d="M259.29,219.35A4,4 0 1 1 251.29,219.35A4,4 0 1 1 259.29,219.35Z" style="fill:#F44336" />
<path d="M269.68,221.12A4,4 0 1 1 261.68,221.12A4,4 0 1 1 269.68,221.12Z" style="fill:#F44336" />
<path d="M280.06,233.4A4,4 0 1 1 272.06,233.4A4,4 0 1 1 280.06,233.4Z" style="fill:#F44336" />
<path d="M290.45,231.71A4,4 0 1 1 282.45,231.71A4,4 0 1 1 290.45,231.71Z" style="fill:#F44336" />
<path d="M300.84,234.43A4,4 0 1 1 292.84,234.43A4,4 0 1 1 300.84,234.43Z" style="fill:#F44336" />
<path d="M311.23,238.34A4,4 0 1 1 303.23,238.34A4,4 0 1 1 311.23,238.34Z" style="fill:#F44336" />
<path d="M321.62,248.74A4,4 0 1 1 313.62,248.74A4,4 0 1 1 321.62,248.74Z" style="fill:#F44336" />
<path d="M332,242.22A4,4 0 1 1 324,242.22A4,4 0 1 1 332,242.22Z" style="fill:#F44336" />
<path d="M342.39,247.9A4,4 0 1 1 334.39,247.9A4,4 0 1 1 342.39,247.9Z" style="fill:#F44336" />
<path d="M352.78,240.32A4,4 0 1 1 344.78,240.32A4,4 0 1 1 352.78,240.32Z" style="fill:#F44336" />
<path d="M363.17,256.75A4,4 0 1 1 355.17,256.75A4,4 0 1 1 363.17,256.75Z" style="fill:#F44336" />
<path d="M373.55,252.01A4,4 0 1 1 365.55,252.01A4,4 0 1 1 373.55,252.01Z" style="fill:#F44336" />
<path d="M383.94,266.34A4,4 0 1 1 375.94,266.34A4,4 0 1 1 383.94,266.34Z" style="fill:#F44336" />
<path d="M394.33,251.6A4,4 0 1 1 386.33,251.6A4,4 0 1 1 394.33,251.6Z" style="fill:#F44336" />
<path d="M404.72,265.37A4,4 0 1 1 396.72,265.37A4,4 0 1 1 404.72,265.37Z" style="fill:#F44336" />
<path d="M415.11,261.25A4,4 0 1 1 407.11,261.25A4,4 0 1 1 415.11,261.25Z" style="fill:#F44336" />
<path d="M425.49,274.56A4,4 0 1 1 417.49,274.56A4,4 0 1 1 425.49,274.56Z" style="fill:#F44336" />
<path d="M435.88,265.46A4,4 0 1 1 427.88,265.46A4,4 0 1 1 435.88,265.46Z" style="fill:#F44336" />
<path d="M446.27,278.57A4,4 0 1 1 438.27,278.57A4,4 0 1 1 446.27,278.57Z" style="fill:#F44336" />
<path d="M456.66,274.08A4,4 0 1 1 448.66,274.08A4,4 0 1 1 456.66,274.08Z" style="fill:#F44336" />
<path d="M467.04,284.32A4,4 0 1 1 459.04,284.32A4,4 0 1 1 467.04,284.32Z" style="fill:#F44336" />
<path d="M477.43,285.54A4,4 0 1 1 469.43,285.54A4,4 0 1 1 477.43,285.54Z" style="fill:#F44336" />
<path d="M487.82,296.75A4,4 0 1 1 479.82,296.75A4,4 0 1 1 487.82,296.75Z" style="fill:#F44336" />
<path d="M498.21,289.51A4,4 0 1 1 490.21,289.51A4,4 0 1 1 498.21,289.51Z" style="fill:#F44336" />
<path d="M508.6,307.43A4,4 0 1 1 500.6,307.43A4,4 0 1 1 508.6,307.43Z" style="fill:#F44336" />
<path d="M518.98,299.98A4,4 0 1 1 510.98,299.98A4,4 0 1 1 518.98,299.98Z" style="fill:#F44336" />
<path d="M529.37,308.55A4,4 0 1 1 521.37,308.55A4,4 0 1 1 529.37,308.55Z" style="fill:#F44336" />
<path d="M539.76,299.65A4,4 0 1 1 531.76,299.65A4,4 0 1 1 539.76,299.65Z" style="fill:#F44336" />
<path d="M550.15,318.51A4,4 0 1 1 542.15,318.51A4,4 0 1 1 550.15,318.51Z" style="fill:#F44336" />
<path d="M560.53,330.36A4,4 0 1 1 552.53,330.36A4,4 0 1 1 560.53,330.36Z" style="fill:#F44336" />
<path d="M47.533,48.531L57.921,50.543L68.309,51.667L78.697,52.512L89.084,54.727L99.472,55.247L109.86,132.46L120.25,131.65L130.64,133.55L141.02,134.61L151.41,135.61L161.8,134.33L172.19,136.41L182.57,135.22L192.96,138.69L203.35,138.16L213.74,138.58L224.13,138.89L234.51,137.63L244.9,137.12L255.29,143.67L265.68,143.38L276.06,143.19L286.45,144.89L296.84,144.24L307.23,142.22L317.62,150.99L328,136.48L338.39,145.04L348.78,137.77L359.17,146.74L369.55,139.36L379.94,145.52L390.33,147.66L400.72,148.94L411.11,140.71L421.49,143.68L431.88,142.18L442.27,144.59L452.66,144.34L463.04,146.22L473.43,145.02L483.82,152.09L494.21,145.32L504.6,148.18L514.98,145.81L525.37,147.96L535.76,143.57L546.15,148.92L556.53,149.55" style="fill:none;stroke:#4CAF50" />
<path d="M47.533,53.531L43.203,46.031L51.863,46.031Z" style="fill:#4CAF50" />
<path d="M57.921,55.543L53.591,48.043L62.251,48.043Z" style="fill:#4CAF50" />
<path d="M68.309,56.667L63.979,49.167L72.639,49.167Z" style="fill:#4CAF50" />
<path d="M78.697,57.512L74.366,50.012L83.027,50.012Z" style="fill:#4CAF50" />
<path d="M89.084,59.727L84.754,52.227L93.414,52.227Z" style="fill:#4CAF50" />
<path d="M99.472,60.247L95.142,52.747L103.8,52.747Z" style="fill:#4CAF50" />
<path d="M109.86,137.46L105.53,129.96L114.19,129.96Z" style="fill:#4CAF50" />
<path d="M120.25,136.65L115.92,129.15L124.58,129.15Z" style="fill:#4CAF50" />
<path d="M130.64,138.55L126.31,131.05L134.97,131.05Z" style="fill:#4CAF50" />
<path d="M141.02,139.61L136.69,132.11L145.35,132.11Z" style="fill:#4CAF50" />
<path d="M151.41,140.61L147.08,133.11L155.74,133.11Z" style="fill:#4CAF50" />
<path d="M161.8,139.33L157.47,131.83L166.13,131.83Z" style="fill:#4CAF50" />
<path d="M172.19,141.41L167.86,133.91L176.52,133.91Z" style="fill:#4CAF50" />
<path d="M182.57,140.22L178.24,132.72L186.9,132.72Z" style="fill:#4CAF50" />
<path d="M192.96,143.69L188.63,136.19L197.29,136.19Z" style="fill:#4CAF50" />
<path d="M203.35,143.16L199.02,135.66L207.68,135.66Z" style="fill:#4CAF50" />
<path d="M213.74,143.58L209.41,136.08L218.07,136.08Z" style="fill:#4CAF50" />
<path d="M224.13,143.89L219.8,136.39L228.46,136.39Z" style="fill:#4CAF50" />
<path d="M234.51,142.63L230.18,135.13L238.84,135.13Z" style="fill:#4CAF50" />
<path d="M244.9,142.12L240.57,134.62L249.23,134.62Z" style="fill:#4CAF50" />
<path d="M255.29,148.67L250.96,141.17L259.62,141.17Z" style="fill:#4CAF50" />
<path d="M265.68,148.38L261.35,140.88L270.01,140.88Z" style="fill:#4CAF50" />
<path d="M276.06,148.19L271.73,140.69L280.39,140.69Z" style="fill:#4CAF50" />
<path d="M286.45,149.89L282.12,142.39L290.78,142.39Z" style="fill:#4CAF50" />
<path d="M296.84,149.24L292.51,141.74L301.17,141.74Z" style="fill:#4CAF50" />
<path d="M307.23,147.22L302.9,139.72L311.56,139.72Z" style="fill:#4CAF50" />
<path d="M317.62,155.99L313.29,148.49L321.95,148.49Z" style="fill:#4CAF50" />
<path d="M328,141.48L323.67,133.98L332.33,133.98Z" style="fill:#4CAF50" />
<path d="M338.39,150.04L334.06,142.54L342.72,142.54Z" style="fill:#4CAF50" />
<path d="M348.78,142.77L344.45,135.27L353.11,135.27Z" style="fill:#4CAF50" />
<path d="M359.17,151.74L354.84,144.24L363.5,144.24Z" style="fill:#4CAF50" />
<path d="M369.55,144.36L365.22,136.86L373.88,136.86Z" style="fill:#4CAF50" />
<path d="M379.94,150.52L375.61,143.02L384.27,143.02Z" style="fill:#4CAF50" />
<path d="M390.33,152.66L386,145.16L394.66,145.16Z" style="fill:#4CAF50" />
<path d="M400.72,153.94L396.39,146.44L405.05,146.44Z" style="fill:#4CAF50" />
<path d="M411.11,145.71L406.78,138.21L415.44,138.21Z" style="fill:#4CAF50" />
<path d="M421.49,148.68L417.16,141.18L425.82,141.18Z" style="fill:#4CAF50" />
<path d="M431.88,147.18L427.55,139.68L436.21,139.68Z" style="fill:#4CAF50" />
<path d="M442.27,149.59L437.94,142.09L446.6,142.09Z" style="fill:#4CAF50" />
<path d="M452.66,149.34L448.33,141.84L456.99,141.84Z" style="fill:#4CAF50" />
<path d="M463.04,151.22L458.71,143.72L467.37,143.72Z" style="fill:#4CAF50" />
<path d="M473.43,150.02L469.1,142.52L477.76,142.52Z" style="fill:#4CAF50" />
<path d="M483.82,157.09L479.49,149.59L488.15,149.59Z" style="fill:#4CAF50" />
<path d="M494.21,150.32L489.88,142.82L498.54,142.82Z" style="fill:#4CAF50" />
<path d="M504.6,153.18L500.27,145.68L508.93,145.68Z" style="fill:#4CAF50" />
<path d="M514.98,150.81L510.65,143.31L519.31,143.31Z" style="fill:#4CAF50" />
<path d="M525.37,152.96L521.04,145.46L529.7,145.46Z" style="fill:#4CAF50" />
<path d="M535.76,148.57L531.43,141.07L540.09,141.07Z" style="fill:#4CAF50" />
<path d="M546.15,153.92L541.82,146.42L550.48,146.42Z" style="fill:#4CAF50" />
<path d="M556.53,154.55L552.2,147.05L560.86,147.05Z" style="fill:#4CAF50" />
<path d="M43.533,326.67L63.533,326.67" style="fill:none;stroke:#F44336" />
<path d="M57.533,326.67A4,4 0 1 1 49.533,326.67A4,4 0 1 1 57.533,326.67Z" style="fill:#F44336" />
<text x="66.533" y="-324.18" transform="scale(1, -1)"
	style="font-family:Liberation Serif;font-variant:normal;font-weight:normal;font-style:normal;font-size:12px">Без индекса</text>
<path d="M43.533,316.49L63.533,316.49" style="fill:none;stroke:#4CAF50" />
<path d="M53.533,321.49L49.203,313.99L57.863,313.99Z" style="fill:#4CAF50" />
<text x="66.533" y="-314" transform="scale(1, -1)"
	style="font-family:Liberation Serif;font-variant:normal;font-weight:normal;font-style:normal;font-size:12px">С индексом</text>
</g>
</svg>
