<?xml version="1.0"?>
<!-- Generated by SVGo and Plotinum VG -->
<svg width="576pt" height="360pt" viewBox="0 0 576 360"
	xmlns="http://www.w3.org/2000/svg"
	xmlns:xlink="http://www.w3.org/1999/xlink">
<g transform="scale(1, -1) translate(0, -360)">
<path d="M0,0L576,0L576,360L0,360Z" style="fill:#FFFFFF" />
<text x="36.516" y="-348.65" transform="scale(1, -1)"
	style="font-family:Liberation Sans;font-variant:normal;font-weight:normal;font-style:normal;font-size:14px">Зависимость времени выполнения запроса от количества записей в таблице</text>
<text x="158.99" y="-4.293" transform="scale(1, -1)"
	style="font-family:Liberation Sans;font-variant:normal;font-weight:normal;font-style:normal;font-size:14px">Количество записей в таблицу artworks_event</text>
<text x="131.09" y="-19.934" transform="scale(1, -1)"
	style="font-family:Liberation Sans;font-variant:normal;font-weight:normal;font-style:normal;font-size:14px">10000</text>
<text x="334.08" y="-19.934" transform="scale(1, -1)"
	style="font-family:Liberation Sans;font-variant:normal;font-weight:normal;font-style:normal;font-size:14px">30000</text>
<text x="537.07" y="-19.934" transform="scale(1, -1)"
	style="font-family:Liberation Sans;font-variant:normal;font-weight:normal;font-style:normal;font-size:14px">50000</text>
<path d="M150.55,31.281L150.55,39.281" style="fill:none;stroke:#000000;stroke-width:0.5" />
<path d="M353.54,31.281L353.54,39.281" style="fill:none;stroke:#000000;stroke-width:0.5" />
<path d="M556.53,31.281L556.53,39.281" style="fill:none;stroke:#000000;stroke-width:0.5" />
<path d="M252.05,35.281L252.05,39.281" style="fill:none;stroke:#000000;stroke-width:0.5" />
<path d="M455.04,35.281L455.04,39.281" style="fill:none;stroke:#000000;stroke-width:0.5" />
<path d="M59.209,39.281L556.53,39.281" style="fill:none;stroke:#000000;stroke-width:0.5" />
<g transform="rotate(90)">
<text x="156.19" y="11.348" transform="scale(1, -1)"
	style="font-family:Liberation Sans;font-variant:normal;font-weight:normal;font-style:normal;font-size:14px">Время, мс</text>
</g>
<text x="18.607" y="-68.525" transform="scale(1, -1)"
	style="font-family:Liberation Sans;font-variant:normal;font-weight:normal;font-style:normal;font-size:14px">0.5</text>
<text x="18.607" y="-188.17" transform="scale(1, -1)"
	style="font-family:Liberation Sans;font-variant:normal;font-weight:normal;font-style:normal;font-size:14px">2.5</text>
<text x="18.607" y="-307.81" transform="scale(1, -1)"
	style="font-family:Liberation Sans;font-variant:normal;font-weight:normal;font-style:normal;font-size:14px">4.5</text>
<path d="M41.959,72.053L49.959,72.053" style="fill:none;stroke:#000000;stroke-width:0.5" />
<path d="M41.959,191.69L49.959,191.69" style="fill:none;stroke:#000000;stroke-width:0.5" />
<path d="M41.959,311.33L49.959,311.33" style="fill:none;stroke:#000000;stroke-width:0.5" />
<path d="M45.959,131.87L49.959,131.87" style="fill:none;stroke:#000000;stroke-width:0.5" />
<path d="M45.959,251.51L49.959,251.51" style="fill:none;stroke:#000000;stroke-width:0.5" />
<path d="M49.959,48.531L49.959,330.36" style="fill:none;stroke:#000000;stroke-width:0.5" />
<path d="M150.55,48.531L150.55,330.36" style="fill:none;stroke:#808080;stroke-width:0.25" />
<path d="M353.54,48.531L353.54,330.36" style="fill:none;stroke:#808080;stroke-width:0.25" />
<path d="M556.53,48.531L556.53,330.36" style="fill:none;stroke:#808080;stroke-width:0.25" />
<path d="M59.209,72.053L556.53,72.053" style="fill:none;stroke:#808080;stroke-width:0.25" />
<path d="M59.209,191.69L556.53,191.69" style="fill:none;stroke:#808080;stroke-width:0.25" />
<path d="M59.209,311.33L556.53,311.33" style="fill:none;stroke:#808080;stroke-width:0.25" />
<path d="M59.209,52.071L69.358,58.346L79.508,63.82L89.657,69.56L99.807,73.87L109.96,78.504L120.11,165.63L130.26,169.45L140.41,177.44L150.55,178.21L160.7,183.44L170.85,194.29L181,191.43L191.15,197.49L201.3,204.04L211.45,206.71L221.6,209.78L231.75,221.44L241.9,218.91L252.05,224.06L262.2,225.5L272.35,231.97L282.5,239.67L292.65,241.98L302.8,246.3L312.95,251.38L323.1,254.93L333.25,257.53L343.4,247.69L353.54,248.54L363.69,254.83L373.84,257.12L383.99,263.73L394.14,269.09L404.29,269.61L414.44,274.31L424.59,279.21L434.74,284.21L444.89,282.21L455.04,294.46L465.19,292.58L475.34,299.93L485.49,298.76L495.64,304.91L505.79,307.26L515.94,311.75L526.09,322L536.24,326.07L546.39,326.64L556.53,330.36" style="fill:none;stroke:#F44336" />
<path d="M63.209,52.071A4,4 0 1 1 55.209,52.071A4,4 0 1 1 63.209,52.071Z" style="fill:#F44336" />
<path d="M73.358,58.346A4,4 0 1 1 65.358,58.346A4,4 0 1 1 73.358,58.346Z" style="fill:#F44336" />
<path d="M83.508,63.82A4,4 0 1 1 75.508,63.82A4,4 0 1 1 83.508,63.82Z" style="fill:#F44336" />
<path d="M93.657,69.56A4,4 0 1 1 85.657,69.56A4,4 0 1 1 93.657,69.56Z" style="fill:#F44336" />
<path d="M103.81,73.87A4,4 0 1 1 95.807,73.87A4,4 0 1 1 103.81,73.87Z" style="fill:#F44336" />
<path d="M113.96,78.504A4,4 0 1 1 105.96,78.504A4,4 0 1 1 113.96,78.504Z" style="fill:#F44336" />
<path d="M124.11,165.63A4,4 0 1 1 116.11,165.63A4,4 0 1 1 124.11,165.63Z" style="fill:#F44336" />
<path d="M134.26,169.45A4,4 0 1 1 126.26,169.45A4,4 0 1 1 134.26,169.45Z" style="fill:#F44336" />
<path d="M144.41,177.44A4,4 0 1 1 136.41,177.44A4,4 0 1 1 144.41,177.44Z" style="fill:#F44336" />
<path d="M154.55,178.21A4,4 0 1 1 146.55,178.21A4,4 0 1 1 154.55,178.21Z" style="fill:#F44336" />
<path d="M164.7,183.44A4,4 0 1 1 156.7,183.44A4,4 0 1 1 164.7,183.44Z" style="fill:#F44336" />
<path d="M174.85,194.29A4,4 0 1 1 166.85,194.29A4,4 0 1 1 174.85,194.29Z" style="fill:#F44336" />
<path d="M185,191.43A4,4 0 1 1 177,191.43A4,4 0 1 1 185,191.43Z" style="fill:#F44336" />
<path d="M195.15,197.49A4,4 0 1 1 187.15,197.49A4,4 0 1 1 195.15,197.49Z" style="fill:#F44336" />
<path d="M205.3,204.04A4,4 0 1 1 197.3,204.04A4,4 0 1 1 205.3,204.04Z" style="fill:#F44336" />
<path d="M215.45,206.71A4,4 0 1 1 207.45,206.71A4,4 0 1 1 215.45,206.71Z" style="fill:#F44336" />
<path d="M225.6,209.78A4,4 0 1 1 217.6,209.78A4,4 0 1 1 225.6,209.78Z" style="fill:#F44336" />
<path d="M235.75,221.44A4,4 0 1 1 227.75,221.44A4,4 0 1 1 235.75,221.44Z" style="fill:#F44336" />
<path d="M245.9,218.91A4,4 0 1 1 237.9,218.91A4,4 0 1 1 245.9,218.91Z" style="fill:#F44336" />
<path d="M256.05,224.06A4,4 0 1 1 248.05,224.06A4,4 0 1 1 256.05,224.06Z" style="fill:#F44336" />
<path d="M266.2,225.5A4,4 0 1 1 258.2,225.5A4,4 0 1 1 266.2,225.5Z" style="fill:#F44336" />
<path d="M276.35,231.97A4,4 0 1 1 268.35,231.97A4,4 0 1 1 276.35,231.97Z" style="fill:#F44336" />
<path d="M286.5,239.67A4,4 0 1 1 278.5,239.67A4,4 0 1 1 286.5,239.67Z" style="fill:#F44336" />
<path d="M296.65,241.98A4,4 0 1 1 288.65,241.98A4,4 0 1 1 296.65,241.98Z" style="fill:#F44336" />
<path d="M306.8,246.3A4,4 0 1 1 298.8,246.3A4,4 0 1 1 306.8,246.3Z" style="fill:#F44336" />
<path d="M316.95,251.38A4,4 0 1 1 308.95,251.38A4,4 0 1 1 316.95,251.38Z" style="fill:#F44336" />
<path d="M327.1,254.93A4,4 0 1 1 319.1,254.93A4,4 0 1 1 327.1,254.93Z" style="fill:#F44336" />
<path d="M337.25,257.53A4,4 0 1 1 329.25,257.53A4,4 0 1 1 337.25,257.53Z" style="fill:#F44336" />
<path d="M347.4,247.69A4,4 0 1 1 339.4,247.69A4,4 0 1 1 347.4,247.69Z" style="fill:#F44336" />
<path d="M357.54,248.54A4,4 0 1 1 349.54,248.54A4,4 0 1 1 357.54,248.54Z" style="fill:#F44336" />
<path d="M367.69,254.83A4,4 0 1 1 359.69,254.83A4,4 0 1 1 367.69,254.83Z" style="fill:#F44336" />
<path d="M377.84,257.12A4,4 0 1 1 369.84,257.12A4,4 0 1 1 377.84,257.12Z" style="fill:#F44336" />
<path d="M387.99,263.73A4,4 0 1 1 379.99,263.73A4,4 0 1 1 387.99,263.73Z" style="fill:#F44336" />
<path d="M398.14,269.09A4,4 0 1 1 390.14,269.09A4,4 0 1 1 398.14,269.09Z" style="fill:#F44336" />
<path d="M408.29,269.61A4,4 0 1 1 400.29,269.61A4,4 0 1 1 408.29,269.61Z" style="fill:#F44336" />
<path d="M418.44,274.31A4,4 0 1 1 410.44,274.31A4,4 0 1 1 418.44,274.31Z" style="fill:#F44336" />
<path d="M428.59,279.21A4,4 0 1 1 420.59,279.21A4,4 0 1 1 428.59,279.21Z" style="fill:#F44336" />
<path d="M438.74,284.21A4,4 0 1 1 430.74,284.21A4,4 0 1 1 438.74,284.21Z" style="fill:#F44336" />
<path d="M448.89,282.21A4,4 0 1 1 440.89,282.21A4,4 0 1 1 448.89,282.21Z" style="fill:#F44336" />
<path d="M459.04,294.46A4,4 0 1 1 451.04,294.46A4,4 0 1 1 459.04,294.46Z" style="fill:#F44336" />
<path d="M469.19,292.58A4,4 0 1 1 461.19,292.58A4,4 0 1 1 469.19,292.58Z" style="fill:#F44336" />
<path d="M479.34,299.93A4,4 0 1 1 471.34,299.93A4,4 0 1 1 479.34,299.93Z" style="fill:#F44336" />
<path d="M489.49,298.76A4,4 0 1 1 481.49,298.76A4,4 0 1 1 489.49,298.76Z" style="fill:#F44336" />
<path d="M499.64,304.91A4,4 0 1 1 491.64,304.91A4,4 0 1 1 499.64,304.91Z" style="fill:#F44336" />
<path d="M509.79,307.26A4,4 0 1 1 501.79,307.26A4,4 0 1 1 509.79,307.26Z" style="fill:#F44336" />
<path d="M519.94,311.75A4,4 0 1 1 511.94,311.75A4,4 0 1 1 519.94,311.75Z" style="fill:#F44336" />
<path d="M530.09,322A4,4 0 1 1 522.09,322A4,4 0 1 1 530.09,322Z" style="fill:#F44336" />
<path d="M540.24,326.07A4,4 0 1 1 532.24,326.07A4,4 0 1 1 540.24,326.07Z" style="fill:#F44336" />
<path d="M550.39,326.64A4,4 0 1 1 542.39,326.64A4,4 0 1 1 550.39,326.64Z" style="fill:#F44336" />
<path d="M560.53,330.36A4,4 0 1 1 552.53,330.36A4,4 0 1 1 560.53,330.36Z" style="fill:#F44336" />
<path d="M59.209,48.531L69.358,50.559L79.508,52.553L89.657,53.781L99.807,54.69L109.96,55.593L120.11,139.06L130.26,141.5L140.41,151.21L150.55,141.31L160.7,140.51L170.85,144.89L181,147.26L191.15,144.19L201.3,146.4L211.45,147.06L221.6,144.73L231.75,147.92L241.9,145.61L252.05,148.07L262.2,146.13L272.35,149.87L282.5,148.2L292.65,159.28L302.8,150.29L312.95,149.46L323.1,154.67L333.25,145.49L343.4,145.37L353.54,144.51L363.69,146.5L373.84,145.43L383.99,147.15L394.14,146.93L404.29,146.02L414.44,147.17L424.59,150.68L434.74,150.11L444.89,153.68L455.04,152.57L465.19,147.75L475.34,148.27L485.49,151.07L495.64,158.96L505.79,150.21L515.94,155.07L526.09,149.65L536.24,156.79L546.39,156.76L556.53,154.79" style="fill:none;stroke:#4CAF50" />
<path d="M59.209,53.531L54.879,46.031L63.539,46.031Z" style="fill:#4CAF50" />
<path d="M69.358,55.559L65.028,48.059L73.689,48.059Z" style="fill:#4CAF50" />
<path d="M79.508,57.553L75.178,50.053L83.838,50.053Z" style="fill:#4CAF50" />
<path d="M89.657,58.781L85.327,51.281L93.988,51.281Z" style="fill:#4CAF50" />
<path d="M99.807,59.69L95.477,52.19L104.14,52.19Z" style="fill:#4CAF50" />
<path d="M109.96,60.593L105.63,53.093L114.29,53.093Z" style="fill:#4CAF50" />
<path d="M120.11,144.06L115.78,136.56L124.44,136.56Z" style="fill:#4CAF50" />
<path d="M130.26,146.5L125.93,139L134.59,139Z" style="fill:#4CAF50" />
<path d="M140.41,156.21L136.07,148.71L144.74,148.71Z" style="fill:#4CAF50" />
<path d="M150.55,146.31L146.22,138.81L154.88,138.81Z" style="fill:#4CAF50" />
<path d="M160.7,145.51L156.37,138.01L165.03,138.01Z" style="fill:#4CAF50" />
<path d="M170.85,149.89L166.52,142.39L175.18,142.39Z" style="fill:#4CAF50" />
<path d="M181,152.26L176.67,144.76L185.33,144.76Z" style="fill:#4CAF50" />
<path d="M191.15,149.19L186.82,141.69L195.48,141.69Z" style="fill:#4CAF50" />
<path d="M201.3,151.4L196.97,143.9L205.63,143.9Z" style="fill:#4CAF50" />
<path d="M211.45,152.06L207.12,144.56L215.78,144.56Z" style="fill:#4CAF50" />
<path d="M221.6,149.73L217.27,142.23L225.93,142.23Z" style="fill:#4CAF50" />
<path d="M231.75,152.92L227.42,145.42L236.08,145.42Z" style="fill:#4CAF50" />
<path d="M241.9,150.61L237.57,143.11L246.23,143.11Z" style="fill:#4CAF50" />
<path d="M252.05,153.07L247.72,145.57L256.38,145.57Z" style="fill:#4CAF50" />
<path d="M262.2,151.13L257.87,143.63L266.53,143.63Z" style="fill:#4CAF50" />
<path d="M272.35,154.87L268.02,147.37L276.68,147.37Z" style="fill:#4CAF50" />
<path d="M282.5,153.2L278.17,145.7L286.83,145.7Z" style="fill:#4CAF50" />
<path d="M292.65,164.28L288.32,156.78L296.98,156.78Z" style="fill:#4CAF50" />
<path d="M302.8,155.29L298.47,147.79L307.13,147.79Z" style="fill:#4CAF50" />
<path d="M312.95,154.46L308.62,146.96L317.28,146.96Z" style="fill:#4CAF50" />
<path d="M323.1,159.67L318.77,152.17L327.43,152.17Z" style="fill:#4CAF50" />
<path d="M333.25,150.49L328.92,142.99L337.58,142.99Z" style="fill:#4CAF50" />
<path d="M343.4,150.37L339.06,142.87L347.73,142.87Z" style="fill:#4CAF50" />
<path d="M353.54,149.51L349.21,142.01L357.87,142.01Z" style="fill:#4CAF50" />
<path d="M363.69,151.5L359.36,144L368.02,144Z" style="fill:#4CAF50" />
<path d="M373.84,150.43L369.51,142.93L378.17,142.93Z" style="fill:#4CAF50" />
<path d="M383.99,152.15L379.66,144.65L388.32,144.65Z" style="fill:#4CAF50" />
<path d="M394.14,151.93L389.81,144.43L398.47,144.43Z" style="fill:#4CAF50" />
<path d="M404.29,151.02L399.96,143.52L408.62,143.52Z" style="fill:#4CAF50" />
<path d="M414.44,152.17L410.11,144.67L418.77,144.67Z" style="fill:#4CAF50" />
<path d="M424.59,155.68L420.26,148.18L428.92,148.18Z" style="fill:#4CAF50" />
<path d="M434.74,155.11L430.41,147.61L439.07,147.61Z" style="fill:#4CAF50" />
<path d="M444.89,158.68L440.56,151.18L449.22,151.18Z" style="fill:#4CAF50" />
<path d="M455.04,157.57L450.71,150.07L459.37,150.07Z" style="fill:#4CAF50" />
<path d="M465.19,152.75L460.86,145.25L469.52,145.25Z" style="fill:#4CAF50" />
<path d="M475.34,153.27L471.01,145.77L479.67,145.77Z" style="fill:#4CAF50" />
<path d="M485.49,156.07L481.16,148.57L489.82,148.57Z" style="fill:#4CAF50" />
<path d="M495.64,163.96L491.31,156.46L499.97,156.46Z" style="fill:#4CAF50" />
<path d="M505.79,155.21L501.46,147.71L510.12,147.71Z" style="fill:#4CAF50" />
<path d="M515.94,160.07L511.61,152.57L520.27,152.57Z" style="fill:#4CAF50" />
<path d="M526.09,154.65L521.76,147.15L530.42,147.15Z" style="fill:#4CAF50" />
<path d="M536.24,161.79L531.91,154.29L540.57,154.29Z" style="fill:#4CAF50" />
<path d="M546.39,161.76L542.06,154.26L550.72,154.26Z" style="fill:#4CAF50" />
<path d="M556.53,159.79L552.2,152.29L560.86,152.29Z" style="fill:#4CAF50" />
<path d="M55.209,326.67L75.209,326.67" style="fill:none;stroke:#F44336" />
<path d="M69.209,326.67A4,4 0 1 1 61.209,326.67A4,4 0 1 1 69.209,326.67Z" style="fill:#F44336" />
<text x="78.209" y="-324.18" transform="scale(1, -1)"
	style="font-family:Liberation Serif;font-variant:normal;font-weight:normal;font-style:normal;font-size:12px">Без индекса</text>
<path d="M55.209,316.49L75.209,316.49" style="fill:none;stroke:#4CAF50" />
<path d="M65.209,321.49L60.879,313.99L69.539,313.99Z" style="fill:#4CAF50" />
<text x="78.209" y="-314" transform="scale(1, -1)"
	style="font-family:Liberation Serif;font-variant:normal;font-weight:normal;font-style:normal;font-size:12px">С индексом</text>
</g>
</svg>
