<?xml version="1.0"?>
<!-- Generated by SVGo and Plotinum VG -->
<svg width="576pt" height="360pt" viewBox="0 0 576 360"
	xmlns="http://www.w3.org/2000/svg"
	xmlns:xlink="http://www.w3.org/1999/xlink">
<g transform="scale(1, -1) translate(0, -360)">
<path d="M0,0L576,0L576,360L0,360Z" style="fill:#FFFFFF" />
<text x="36.516" y="-348.65" transform="scale(1, -1)"
	style="font-family:Liberation Sans;font-variant:normal;font-weight:normal;font-style:normal;font-size:14px">Зависимость времени выполнения запроса от количества записей в таблице</text>
<text x="158.99" y="-4.293" transform="scale(1, -1)"
	style="font-family:Liberation Sans;font-variant:normal;font-weight:normal;font-style:normal;font-size:14px">Количество записей в таблицу artworks_event</text>
<text x="131.09" y="-19.934" transform="scale(1, -1)"
	style="font-family:Liberation Sans;font-variant:normal;font-weight:normal;font-style:normal;font-size:14px">10000</text>
<text x="334.08" y="-19.934" transform="scale(1, -1)"
	style="font-family:Liberation Sans;font-variant:normal;font-weight:normal;font-style:normal;font-size:14px">30000</text>
<text x="537.07" y="-19.934" transform="scale(1, -1)"
	style="font-family:Liberation Sans;font-variant:normal;font-weight:normal;font-style:normal;font-size:14px">50000</text>
<path d="M150.55,31.281L150.55,39.281" style="fill:none;stroke:#000000;stroke-width:0.5" />
<path d="M353.54,31.281L353.54,39.281" style="fill:none;stroke:#000000;stroke-width:0.5" />
<path d="M556.53,31.281L556.53,39.281" style="fill:none;stroke:#000000;stroke-width:0.5" />
<path d="M252.05,35.281L252.05,39.281" style="fill:none;stroke:#000000;stroke-width:0.5" />
<path d="M455.04,35.281L455.04,39.281" style="fill:none;stroke:#000000;stroke-width:0.5" />
<path d="M59.209,39.281L556.53,39.281" style="fill:none;stroke:#000000;stroke-width:0.5" />
<g transform="rotate(90)">
<text x="156.19" y="11.348" transform="scale(1, -1)"
	style="font-family:Liberation Sans;font-variant:normal;font-weight:normal;font-style:normal;font-size:14px">Время, мс</text>
</g>
<text x="18.607" y="-69.465" transform="scale(1, -1)"
	style="font-family:Liberation Sans;font-variant:normal;font-weight:normal;font-style:normal;font-size:14px">0.5</text>
<text x="18.607" y="-195.99" transform="scale(1, -1)"
	style="font-family:Liberation Sans;font-variant:normal;font-weight:normal;font-style:normal;font-size:14px">2.5</text>
<text x="18.607" y="-322.52" transform="scale(1, -1)"
	style="font-family:Liberation Sans;font-variant:normal;font-weight:normal;font-style:normal;font-size:14px">4.5</text>
<path d="M41.959,72.992L49.959,72.992" style="fill:none;stroke:#000000;stroke-width:0.5" />
<path d="M41.959,199.52L49.959,199.52" style="fill:none;stroke:#000000;stroke-width:0.5" />
<path d="M41.959,326.05L49.959,326.05" style="fill:none;stroke:#000000;stroke-width:0.5" />
<path d="M45.959,136.26L49.959,136.26" style="fill:none;stroke:#000000;stroke-width:0.5" />
<path d="M45.959,262.78L49.959,262.78" style="fill:none;stroke:#000000;stroke-width:0.5" />
<path d="M49.959,48.531L49.959,330.36" style="fill:none;stroke:#000000;stroke-width:0.5" />
<path d="M150.55,48.531L150.55,330.36" style="fill:none;stroke:#808080;stroke-width:0.25" />
<path d="M353.54,48.531L353.54,330.36" style="fill:none;stroke:#808080;stroke-width:0.25" />
<path d="M556.53,48.531L556.53,330.36" style="fill:none;stroke:#808080;stroke-width:0.25" />
<path d="M59.209,72.992L556.53,72.992" style="fill:none;stroke:#808080;stroke-width:0.25" />
<path d="M59.209,199.52L556.53,199.52" style="fill:none;stroke:#808080;stroke-width:0.25" />
<path d="M59.209,326.05L556.53,326.05" style="fill:none;stroke:#808080;stroke-width:0.25" />
<path d="M59.209,52.001L69.358,58.587L79.508,63.93L89.657,71.773L99.807,76.326L109.96,84.196L120.11,89.442L130.26,95.591L140.41,98.785L150.55,117.26L160.7,151.97L170.85,156.53L181,176.68L191.15,169.79L201.3,172.47L211.45,178.24L221.6,180.6L231.75,185.7L241.9,183.4L252.05,190.63L262.2,196.02L272.35,196.26L282.5,216.95L292.65,210.37L302.8,209.09L312.95,217.26L323.1,219.23L333.25,224.02L343.4,227.94L353.54,237.43L363.69,240.25L373.84,240.47L383.99,246.12L394.14,250.6L404.29,256.04L414.44,265.98L424.59,266.13L434.74,262.43L444.89,266.28L455.04,273.71L465.19,285.92L475.34,282.56L485.49,292.25L495.64,297.93L505.79,302.07L515.94,318.99L526.09,311.08L536.24,326.04L546.39,330.36L556.53,319.62" style="fill:none;stroke:#F44336" />
<path d="M63.209,52.001A4,4 0 1 1 55.209,52.001A4,4 0 1 1 63.209,52.001Z" style="fill:#F44336" />
<path d="M73.358,58.587A4,4 0 1 1 65.358,58.587A4,4 0 1 1 73.358,58.587Z" style="fill:#F44336" />
<path d="M83.508,63.93A4,4 0 1 1 75.508,63.93A4,4 0 1 1 83.508,63.93Z" style="fill:#F44336" />
<path d="M93.657,71.773A4,4 0 1 1 85.657,71.773A4,4 0 1 1 93.657,71.773Z" style="fill:#F44336" />
<path d="M103.81,76.326A4,4 0 1 1 95.807,76.326A4,4 0 1 1 103.81,76.326Z" style="fill:#F44336" />
<path d="M113.96,84.196A4,4 0 1 1 105.96,84.196A4,4 0 1 1 113.96,84.196Z" style="fill:#F44336" />
<path d="M124.11,89.442A4,4 0 1 1 116.11,89.442A4,4 0 1 1 124.11,89.442Z" style="fill:#F44336" />
<path d="M134.26,95.591A4,4 0 1 1 126.26,95.591A4,4 0 1 1 134.26,95.591Z" style="fill:#F44336" />
<path d="M144.41,98.785A4,4 0 1 1 136.41,98.785A4,4 0 1 1 144.41,98.785Z" style="fill:#F44336" />
<path d="M154.55,117.26A4,4 0 1 1 146.55,117.26A4,4 0 1 1 154.55,117.26Z" style="fill:#F44336" />
<path d="M164.7,151.97A4,4 0 1 1 156.7,151.97A4,4 0 1 1 164.7,151.97Z" style="fill:#F44336" />
<path d="M174.85,156.53A4,4 0 1 1 166.85,156.53A4,4 0 1 1 174.85,156.53Z" style="fill:#F44336" />
<path d="M185,176.68A4,4 0 1 1 177,176.68A4,4 0 1 1 185,176.68Z" style="fill:#F44336" />
<path d="M195.15,169.79A4,4 0 1 1 187.15,169.79A4,4 0 1 1 195.15,169.79Z" style="fill:#F44336" />
<path d="M205.3,172.47A4,4 0 1 1 197.3,172.47A4,4 0 1 1 205.3,172.47Z" style="fill:#F44336" />
<path d="M215.45,178.24A4,4 0 1 1 207.45,178.24A4,4 0 1 1 215.45,178.24Z" style="fill:#F44336" />
<path d="M225.6,180.6A4,4 0 1 1 217.6,180.6A4,4 0 1 1 225.6,180.6Z" style="fill:#F44336" />
<path d="M235.75,185.7A4,4 0 1 1 227.75,185.7A4,4 0 1 1 235.75,185.7Z" style="fill:#F44336" />
<path d="M245.9,183.4A4,4 0 1 1 237.9,183.4A4,4 0 1 1 245.9,183.4Z" style="fill:#F44336" />
<path d="M256.05,190.63A4,4 0 1 1 248.05,190.63A4,4 0 1 1 256.05,190.63Z" style="fill:#F44336" />
<path d="M266.2,196.02A4,4 0 1 1 258.2,196.02A4,4 0 1 1 266.2,196.02Z" style="fill:#F44336" />
<path d="M276.35,196.26A4,4 0 1 1 268.35,196.26A4,4 0 1 1 276.35,196.26Z" style="fill:#F44336" />
<path d="M286.5,216.95A4,4 0 1 1 278.5,216.95A4,4 0 1 1 286.5,216.95Z" style="fill:#F44336" />
<path d="M296.65,210.37A4,4 0 1 1 288.65,210.37A4,4 0 1 1 296.65,210.37Z" style="fill:#F44336" />
<path d="M306.8,209.09A4,4 0 1 1 298.8,209.09A4,4 0 1 1 306.8,209.09Z" style="fill:#F44336" />
<path d="M316.95,217.26A4,4 0 1 1 308.95,217.26A4,4 0 1 1 316.95,217.26Z" style="fill:#F44336" />
<path d="M327.1,219.23A4,4 0 1 1 319.1,219.23A4,4 0 1 1 327.1,219.23Z" style="fill:#F44336" />
<path d="M337.25,224.02A4,4 0 1 1 329.25,224.02A4,4 0 1 1 337.25,224.02Z" style="fill:#F44336" />
<path d="M347.4,227.94A4,4 0 1 1 339.4,227.94A4,4 0 1 1 347.4,227.94Z" style="fill:#F44336" />
<path d="M357.54,237.43A4,4 0 1 1 349.54,237.43A4,4 0 1 1 357.54,237.43Z" style="fill:#F44336" />
<path d="M367.69,240.25A4,4 0 1 1 359.69,240.25A4,4 0 1 1 367.69,240.25Z" style="fill:#F44336" />
<path d="M377.84,240.47A4,4 0 1 1 369.84,240.47A4,4 0 1 1 377.84,240.47Z" style="fill:#F44336" />
<path d="M387.99,246.12A4,4 0 1 1 379.99,246.12A4,4 0 1 1 387.99,246.12Z" style="fill:#F44336" />
<path d="M398.14,250.6A4,4 0 1 1 390.14,250.6A4,4 0 1 1 398.14,250.6Z" style="fill:#F44336" />
<path d="M408.29,256.04A4,4 0 1 1 400.29,256.04A4,4 0 1 1 408.29,256.04Z" style="fill:#F44336" />
<path d="M418.44,265.98A4,4 0 1 1 410.44,265.98A4,4 0 1 1 418.44,265.98Z" style="fill:#F44336" />
<path d="M428.59,266.13A4,4 0 1 1 420.59,266.13A4,4 0 1 1 428.59,266.13Z" style="fill:#F44336" />
<path d="M438.74,262.43A4,4 0 1 1 430.74,262.43A4,4 0 1 1 438.74,262.43Z" style="fill:#F44336" />
<path d="M448.89,266.28A4,4 0 1 1 440.89,266.28A4,4 0 1 1 448.89,266.28Z" style="fill:#F44336" />
<path d="M459.04,273.71A4,4 0 1 1 451.04,273.71A4,4 0 1 1 459.04,273.71Z" style="fill:#F44336" />
<path d="M469.19,285.92A4,4 0 1 1 461.19,285.92A4,4 0 1 1 469.19,285.92Z" style="fill:#F44336" />
<path d="M479.34,282.56A4,4 0 1 1 471.34,282.56A4,4 0 1 1 479.34,282.56Z" style="fill:#F44336" />
<path d="M489.49,292.25A4,4 0 1 1 481.49,292.25A4,4 0 1 1 489.49,292.25Z" style="fill:#F44336" />
<path d="M499.64,297.93A4,4 0 1 1 491.64,297.93A4,4 0 1 1 499.64,297.93Z" style="fill:#F44336" />
<path d="M509.79,302.07A4,4 0 1 1 501.79,302.07A4,4 0 1 1 509.79,302.07Z" style="fill:#F44336" />
<path d="M519.94,318.99A4,4 0 1 1 511.94,318.99A4,4 0 1 1 519.94,318.99Z" style="fill:#F44336" />
<path d="M530.09,311.08A4,4 0 1 1 522.09,311.08A4,4 0 1 1 530.09,311.08Z" style="fill:#F44336" />
<path d="M540.24,326.04A4,4 0 1 1 532.24,326.04A4,4 0 1 1 540.24,326.04Z" style="fill:#F44336" />
<path d="M550.39,330.36A4,4 0 1 1 542.39,330.36A4,4 0 1 1 550.39,330.36Z" style="fill:#F44336" />
<path d="M560.53,319.62A4,4 0 1 1 552.53,319.62A4,4 0 1 1 560.53,319.62Z" style="fill:#F44336" />
<path d="M59.209,48.531L69.358,50.651L79.508,52.806L89.657,54.646L99.807,55.65L109.96,57.556L120.11,58.28L130.26,60.395L140.41,62.087L150.55,110.76L160.7,107.53L170.85,106.56L181,108.16L191.15,109.5L201.3,109.62L211.45,110L221.6,114.29L231.75,113.23L241.9,113.5L252.05,117.94L262.2,114.4L272.35,113.31L282.5,117.87L292.65,117.31L302.8,115L312.95,119.16L323.1,113.7L333.25,115.29L343.4,116.58L353.54,117.25L363.69,119.96L373.84,117.68L383.99,119.24L394.14,118.42L404.29,121.28L414.44,120.02L424.59,123.75L434.74,119.38L444.89,121.7L455.04,128.83L465.19,128.05L475.34,127.48L485.49,126.98L495.64,124.95L505.79,142.71L515.94,153.02L526.09,141.06L536.24,159.86L546.39,143.14L556.53,138.52" style="fill:none;stroke:#4CAF50" />
<path d="M59.209,53.531L54.879,46.031L63.539,46.031Z" style="fill:#4CAF50" />
<path d="M69.358,55.651L65.028,48.151L73.689,48.151Z" style="fill:#4CAF50" />
<path d="M79.508,57.806L75.178,50.306L83.838,50.306Z" style="fill:#4CAF50" />
<path d="M89.657,59.646L85.327,52.146L93.988,52.146Z" style="fill:#4CAF50" />
<path d="M99.807,60.65L95.477,53.15L104.14,53.15Z" style="fill:#4CAF50" />
<path d="M109.96,62.556L105.63,55.056L114.29,55.056Z" style="fill:#4CAF50" />
<path d="M120.11,63.28L115.78,55.78L124.44,55.78Z" style="fill:#4CAF50" />
<path d="M130.26,65.395L125.93,57.895L134.59,57.895Z" style="fill:#4CAF50" />
<path d="M140.41,67.087L136.07,59.587L144.74,59.587Z" style="fill:#4CAF50" />
<path d="M150.55,115.76L146.22,108.26L154.88,108.26Z" style="fill:#4CAF50" />
<path d="M160.7,112.53L156.37,105.03L165.03,105.03Z" style="fill:#4CAF50" />
<path d="M170.85,111.56L166.52,104.06L175.18,104.06Z" style="fill:#4CAF50" />
<path d="M181,113.16L176.67,105.66L185.33,105.66Z" style="fill:#4CAF50" />
<path d="M191.15,114.5L186.82,107L195.48,107Z" style="fill:#4CAF50" />
<path d="M201.3,114.62L196.97,107.12L205.63,107.12Z" style="fill:#4CAF50" />
<path d="M211.45,115L207.12,107.5L215.78,107.5Z" style="fill:#4CAF50" />
<path d="M221.6,119.29L217.27,111.79L225.93,111.79Z" style="fill:#4CAF50" />
<path d="M231.75,118.23L227.42,110.73L236.08,110.73Z" style="fill:#4CAF50" />
<path d="M241.9,118.5L237.57,111L246.23,111Z" style="fill:#4CAF50" />
<path d="M252.05,122.94L247.72,115.44L256.38,115.44Z" style="fill:#4CAF50" />
<path d="M262.2,119.4L257.87,111.9L266.53,111.9Z" style="fill:#4CAF50" />
<path d="M272.35,118.31L268.02,110.81L276.68,110.81Z" style="fill:#4CAF50" />
<path d="M282.5,122.87L278.17,115.37L286.83,115.37Z" style="fill:#4CAF50" />
<path d="M292.65,122.31L288.32,114.81L296.98,114.81Z" style="fill:#4CAF50" />
<path d="M302.8,120L298.47,112.5L307.13,112.5Z" style="fill:#4CAF50" />
<path d="M312.95,124.16L308.62,116.66L317.28,116.66Z" style="fill:#4CAF50" />
<path d="M323.1,118.7L318.77,111.2L327.43,111.2Z" style="fill:#4CAF50" />
<path d="M333.25,120.29L328.92,112.79L337.58,112.79Z" style="fill:#4CAF50" />
<path d="M343.4,121.58L339.06,114.08L347.73,114.08Z" style="fill:#4CAF50" />
<path d="M353.54,122.25L349.21,114.75L357.87,114.75Z" style="fill:#4CAF50" />
<path d="M363.69,124.96L359.36,117.46L368.02,117.46Z" style="fill:#4CAF50" />
<path d="M373.84,122.68L369.51,115.18L378.17,115.18Z" style="fill:#4CAF50" />
<path d="M383.99,124.24L379.66,116.74L388.32,116.74Z" style="fill:#4CAF50" />
<path d="M394.14,123.42L389.81,115.92L398.47,115.92Z" style="fill:#4CAF50" />
<path d="M404.29,126.28L399.96,118.78L408.62,118.78Z" style="fill:#4CAF50" />
<path d="M414.44,125.02L410.11,117.52L418.77,117.52Z" style="fill:#4CAF50" />
<path d="M424.59,128.75L420.26,121.25L428.92,121.25Z" style="fill:#4CAF50" />
<path d="M434.74,124.38L430.41,116.88L439.07,116.88Z" style="fill:#4CAF50" />
<path d="M444.89,126.7L440.56,119.2L449.22,119.2Z" style="fill:#4CAF50" />
<path d="M455.04,133.83L450.71,126.33L459.37,126.33Z" style="fill:#4CAF50" />
<path d="M465.19,133.05L460.86,125.55L469.52,125.55Z" style="fill:#4CAF50" />
<path d="M475.34,132.48L471.01,124.98L479.67,124.98Z" style="fill:#4CAF50" />
<path d="M485.49,131.98L481.16,124.48L489.82,124.48Z" style="fill:#4CAF50" />
<path d="M495.64,129.95L491.31,122.45L499.97,122.45Z" style="fill:#4CAF50" />
<path d="M505.79,147.71L501.46,140.21L510.12,140.21Z" style="fill:#4CAF50" />
<path d="M515.94,158.02L511.61,150.52L520.27,150.52Z" style="fill:#4CAF50" />
<path d="M526.09,146.06L521.76,138.56L530.42,138.56Z" style="fill:#4CAF50" />
<path d="M536.24,164.86L531.91,157.36L540.57,157.36Z" style="fill:#4CAF50" />
<path d="M546.39,148.14L542.06,140.64L550.72,140.64Z" style="fill:#4CAF50" />
<path d="M556.53,143.52L552.2,136.02L560.86,136.02Z" style="fill:#4CAF50" />
<path d="M55.209,326.67L75.209,326.67" style="fill:none;stroke:#F44336" />
<path d="M69.209,326.67A4,4 0 1 1 61.209,326.67A4,4 0 1 1 69.209,326.67Z" style="fill:#F44336" />
<text x="78.209" y="-324.18" transform="scale(1, -1)"
	style="font-family:Liberation Serif;font-variant:normal;font-weight:normal;font-style:normal;font-size:12px">Без индекса</text>
<path d="M55.209,316.49L75.209,316.49" style="fill:none;stroke:#4CAF50" />
<path d="M65.209,321.49L60.879,313.99L69.539,313.99Z" style="fill:#4CAF50" />
<text x="78.209" y="-314" transform="scale(1, -1)"
	style="font-family:Liberation Serif;font-variant:normal;font-weight:normal;font-style:normal;font-size:12px">С индексом</text>
</g>
</svg>
